<svg width="503" height="456" viewBox="0 0 503 456" fill="none" xmlns="http://www.w3.org/2000/svg">
<g clip-path="url(#clip0_942_2434)">
<path d="M187.66 90.7769V35.4145H438.509V90.7769H187.66ZM44.0733 446.566C91.3561 376.796 109.24 296.054 97.6976 203.213C97.6976 292.021 80.3977 364.099 15.815 406.779L44.0733 446.566ZM116.152 149.588C93.0807 140.368 40.0267 119.022 7.16504 108.647C33.1149 122.484 91.3561 146.126 123.077 204.951L116.152 149.588ZM116.152 51.5602C93.0807 42.3399 40.0267 20.9934 7.16504 10.6189C33.1149 24.4561 91.3561 48.0975 123.077 106.923L116.152 51.5602ZM433.308 368.716C417.162 357.187 396.399 347.383 373.912 339.304C391.782 353.141 407.928 371.025 418.316 389.479L433.308 368.716ZM433.308 299.516C417.162 287.988 396.399 278.184 373.912 270.104C391.782 283.941 407.928 301.825 418.316 320.279L433.308 299.516ZM312.208 368.716C296.063 357.187 275.3 347.383 252.813 339.304C270.683 353.141 286.829 371.025 297.217 389.479L312.208 368.716ZM312.208 299.516C296.063 287.988 275.3 278.184 252.813 270.104C270.683 283.941 286.829 301.825 297.217 320.279L312.208 299.516ZM89.618 444.257H90.1883C149.013 381.399 187.646 341.042 187.646 196.301V169.197H330.079V227.438H221.092V443.687H245.887V235.518H330.079V444.271H354.874V235.518H440.219V426.971L392.937 438.5C427.537 433.312 448.869 439.07 465.015 449.458V235.518L455.211 215.909C448.286 221.68 441.374 227.438 434.448 227.438H354.874V169.197H497.306L462.707 142.093C460.982 162.855 447.131 161.117 439.636 161.117H187.633V98.843H441.36L470.189 98.2727V56.1771L438.468 5.43164V27.3485H181.278L157.093 5.43164L158.247 190.543C161.71 331.251 143.826 380.258 89.6315 444.271L89.618 444.257Z" fill="#F59B1A"/>
<path d="M187.66 90.7769V35.4145H438.509V90.7769H187.66ZM44.0733 446.566C91.3561 376.796 109.24 296.054 97.6976 203.213C97.6976 292.021 80.3977 364.099 15.815 406.779L44.0733 446.566ZM116.152 149.588C93.0807 140.368 40.0267 119.022 7.16504 108.647C33.1149 122.484 91.3561 146.126 123.077 204.951L116.152 149.588ZM116.152 51.5602C93.0807 42.3399 40.0267 20.9934 7.16504 10.6189C33.1149 24.4561 91.3561 48.0975 123.077 106.923L116.152 51.5602ZM433.308 368.716C417.162 357.187 396.399 347.383 373.912 339.304C391.782 353.141 407.928 371.025 418.316 389.479L433.308 368.716ZM433.308 299.516C417.162 287.988 396.399 278.184 373.912 270.104C391.782 283.941 407.928 301.825 418.316 320.279L433.308 299.516ZM312.208 368.716C296.063 357.187 275.3 347.383 252.813 339.304C270.683 353.141 286.829 371.025 297.217 389.479L312.208 368.716ZM312.208 299.516C296.063 287.988 275.3 278.184 252.813 270.104C270.683 283.941 286.829 301.825 297.217 320.279L312.208 299.516ZM89.618 444.257H90.1883C149.013 381.399 187.646 341.042 187.646 196.301V169.197H330.079V227.438H221.092V443.687H245.887V235.518H330.079V444.271H354.874V235.518H440.219V426.971L392.937 438.5C427.537 433.312 448.869 439.07 465.015 449.458V235.518L455.211 215.909C448.286 221.68 441.374 227.438 434.448 227.438H354.874V169.197H497.306L462.707 142.093C460.982 162.855 447.131 161.117 439.636 161.117H187.633V98.843H441.36L470.189 98.2727V56.1771L438.468 5.43164V27.3485H181.278L157.093 5.43164L158.247 190.543C161.71 331.251 143.826 380.258 89.6315 444.271L89.618 444.257Z" stroke="#7F572A" stroke-miterlimit="10"/>
<path d="M443.125 0.339355H433.688V9.7769H443.125V0.339355Z" stroke="#714C11" stroke-miterlimit="10"/>
<path d="M443.125 22.3105H433.688V31.7481H443.125V22.3105Z" stroke="#714C11" stroke-miterlimit="10"/>
<path d="M474.914 51.207H465.477V60.6446H474.914V51.207Z" stroke="#714C11" stroke-miterlimit="10"/>
<path d="M474.914 93.2754H465.477V102.713H474.914V93.2754Z" stroke="#714C11" stroke-miterlimit="10"/>
<path d="M443.125 85.9019H433.688V95.3394H443.125V85.9019Z" stroke="#714C11" stroke-miterlimit="10"/>
<path d="M191.638 95.3394H182.201V104.777H191.638V95.3394Z" stroke="#714C11" stroke-miterlimit="10"/>
<path d="M191.638 85.9019H182.201V95.3394H191.638V85.9019Z" stroke="#714C11" stroke-miterlimit="10"/>
<path d="M191.638 164.349H182.201V173.787H191.638V164.349Z" stroke="#714C11" stroke-miterlimit="10"/>
<path d="M334.423 164.349H324.986V173.787H334.423V164.349Z" stroke="#714C11" stroke-miterlimit="10"/>
<path d="M359.287 164.525H349.85V173.963H359.287V164.525Z" stroke="#714C11" stroke-miterlimit="10"/>
<path d="M467.663 137.354H458.225V146.791H467.663V137.354Z" stroke="#714C11" stroke-miterlimit="10"/>
<path d="M442.174 156.432H432.737V165.87H442.174V156.432Z" stroke="#714C11" stroke-miterlimit="10"/>
<path d="M502.086 164.892H492.648V174.33H502.086V164.892Z" stroke="#714C11" stroke-miterlimit="10"/>
<path d="M459.013 211.347H449.575V220.784H459.013V211.347Z" stroke="#714C11" stroke-miterlimit="10"/>
<path d="M438.644 222.726H429.207V232.164H438.644V222.726Z" stroke="#714C11" stroke-miterlimit="10"/>
<path d="M469.713 231.009H460.275V240.447H469.713V231.009Z" stroke="#714C11" stroke-miterlimit="10"/>
<path d="M398.83 433.421H389.392V442.858H398.83V433.421Z" stroke="#714C11" stroke-miterlimit="10"/>
<path d="M444.972 423.983H435.534V433.421H444.972V423.983Z" stroke="#714C11" stroke-miterlimit="10"/>
<path d="M469.713 445.493H460.275V454.93H469.713V445.493Z" stroke="#714C11" stroke-miterlimit="10"/>
<path d="M423.68 385.378H414.242V394.815H423.68V385.378Z" stroke="#714C11" stroke-miterlimit="10"/>
<path d="M438.291 364.941H428.854V374.378H438.291V364.941Z" stroke="#714C11" stroke-miterlimit="10"/>
<path d="M423.68 316.001H414.242V325.439H423.68V316.001Z" stroke="#714C11" stroke-miterlimit="10"/>
<path d="M379.833 336.425H370.395V345.862H379.833V336.425Z" stroke="#714C11" stroke-miterlimit="10"/>
<path d="M437.911 295.28H428.473V304.717H437.911V295.28Z" stroke="#714C11" stroke-miterlimit="10"/>
<path d="M378.366 265.704H368.928V275.142H378.366V265.704Z" stroke="#714C11" stroke-miterlimit="10"/>
<path d="M301.725 385.378H292.287V394.815H301.725V385.378Z" stroke="#714C11" stroke-miterlimit="10"/>
<path d="M258.149 335.08H248.711V344.518H258.149V335.08Z" stroke="#714C11" stroke-miterlimit="10"/>
<path d="M256.968 265.704H247.53V275.142H256.968V265.704Z" stroke="#714C11" stroke-miterlimit="10"/>
<path d="M302.54 315.051H293.102V324.488H302.54V315.051Z" stroke="#714C11" stroke-miterlimit="10"/>
<path d="M225.165 222.726H215.728V232.164H225.165V222.726Z" stroke="#714C11" stroke-miterlimit="10"/>
<path d="M250.029 231.009H240.591V240.447H250.029V231.009Z" stroke="#714C11" stroke-miterlimit="10"/>
<path d="M359.871 231.009H350.434V240.447H359.871V231.009Z" stroke="#714C11" stroke-miterlimit="10"/>
<path d="M359.871 221.572H350.434V231.009H359.871V221.572Z" stroke="#714C11" stroke-miterlimit="10"/>
<path d="M334.423 231.009H324.986V240.447H334.423V231.009Z" stroke="#714C11" stroke-miterlimit="10"/>
<path d="M334.423 221.572H324.986V231.009H334.423V221.572Z" stroke="#714C11" stroke-miterlimit="10"/>
<path d="M191.638 154.912H182.201V164.349H191.638V154.912Z" stroke="#714C11" stroke-miterlimit="10"/>
<path d="M162.823 190.829H153.386V200.266H162.823V190.829Z" stroke="#714C11" stroke-miterlimit="10"/>
<path d="M191.638 203.349H182.201V212.786H191.638V203.349Z" stroke="#714C11" stroke-miterlimit="10"/>
<path d="M93.3521 440.292H83.9146V449.73H93.3521V440.292Z" stroke="#714C11" stroke-miterlimit="10"/>
<path d="M250.029 439.138H240.591V448.575H250.029V439.138Z" stroke="#714C11" stroke-miterlimit="10"/>
<path d="M359.287 439.138H349.85V448.575H359.287V439.138Z" stroke="#714C11" stroke-miterlimit="10"/>
<path d="M47.0059 442.601H37.5684V452.038H47.0059V442.601Z" stroke="#714C11" stroke-miterlimit="10"/>
<path d="M19.3589 403.805H9.92139V413.242H19.3589V403.805Z" stroke="#714C11" stroke-miterlimit="10"/>
<path d="M102.79 198.637H93.3521V208.074H102.79V198.637Z" stroke="#714C11" stroke-miterlimit="10"/>
<path d="M11.7681 104.764H2.33057V114.201H11.7681V104.764Z" stroke="#714C11" stroke-miterlimit="10"/>
<path d="M10.6817 5.54004H1.24414V14.9776H10.6817V5.54004Z" stroke="#714C11" stroke-miterlimit="10"/>
<path d="M126.879 100.051H117.441V109.489H126.879V100.051Z" stroke="#714C11" stroke-miterlimit="10"/>
<path d="M128.454 199.492H119.017V208.93H128.454V199.492Z" stroke="#714C11" stroke-miterlimit="10"/>
<path d="M160.936 0.339355H151.498V9.7769H160.936V0.339355Z" stroke="#714C11" stroke-miterlimit="10"/>
<path d="M193.417 30.3765H183.979V39.814H193.417V30.3765Z" stroke="#714C11" stroke-miterlimit="10"/>
<path d="M443.125 31.7617H433.688V41.1993H443.125V31.7617Z" stroke="#714C11" stroke-miterlimit="10"/>
<path d="M119.234 199.682L93.3789 156.31" stroke="#714C11" stroke-miterlimit="10"/>
<path d="M95.633 155.115C94.9133 153.907 93.3381 153.513 92.1295 154.233C90.921 154.952 90.5272 156.528 91.2469 157.736C91.9666 158.945 93.5418 159.339 94.7503 158.619C95.9589 157.899 96.3527 156.324 95.633 155.115Z" fill="#714C11"/>
<path d="M293.102 314.874L280.161 295.823" stroke="#714C11" stroke-miterlimit="10"/>
<path d="M282.347 294.506C281.56 293.338 279.971 293.039 278.803 293.827C277.635 294.615 277.337 296.203 278.124 297.371C278.912 298.539 280.501 298.838 281.668 298.05C282.836 297.262 283.135 295.674 282.347 294.506Z" fill="#714C11"/>
<path d="M306.26 295.986L287.603 279.718" stroke="#714C11" stroke-miterlimit="10"/>
<path d="M289.381 277.885C288.322 276.962 286.706 277.07 285.783 278.129C284.86 279.189 284.968 280.804 286.027 281.728C287.087 282.651 288.702 282.543 289.626 281.483C290.549 280.424 290.441 278.808 289.381 277.885Z" fill="#714C11"/>
<path d="M256.954 272.385L272.421 278.482" stroke="#714C11" stroke-miterlimit="10"/>
<path d="M271.362 280.818C272.679 281.334 274.159 280.695 274.675 279.378C275.191 278.061 274.553 276.581 273.236 276.065C271.919 275.549 270.438 276.187 269.922 277.504C269.406 278.822 270.045 280.302 271.362 280.818Z" fill="#714C11"/>
<path d="M442.174 161.144L455.794 160.791" stroke="#714C11" stroke-miterlimit="10"/>
<path d="M455.74 163.344C457.152 163.303 458.266 162.136 458.225 160.723C458.184 159.311 457.017 158.198 455.604 158.238C454.192 158.279 453.079 159.447 453.119 160.859C453.16 162.271 454.328 163.385 455.74 163.344Z" fill="#714C11"/>
<path d="M462.027 146.791L460.425 154.531" stroke="#714C11" stroke-miterlimit="10"/>
<path d="M457.953 153.879C457.668 155.264 458.551 156.609 459.936 156.894C461.321 157.179 462.665 156.296 462.951 154.911C463.236 153.526 462.353 152.182 460.968 151.897C459.583 151.612 458.239 152.494 457.953 153.879Z" fill="#714C11"/>
<path d="M256.954 274.477L269.773 285.272" stroke="#714C11" stroke-miterlimit="10"/>
<path d="M268.021 287.146C269.094 288.056 270.71 287.92 271.62 286.834C272.529 285.761 272.394 284.145 271.307 283.235C270.234 282.325 268.619 282.461 267.709 283.547C266.799 284.62 266.935 286.236 268.021 287.146Z" fill="#714C11"/>
<path d="M415.234 316.001L402.306 296.95" stroke="#714C11" stroke-miterlimit="10"/>
<path d="M404.479 295.619C403.691 294.451 402.102 294.153 400.935 294.94C399.767 295.728 399.468 297.317 400.256 298.484C401.043 299.652 402.632 299.951 403.8 299.163C404.968 298.376 405.266 296.787 404.479 295.619Z" fill="#714C11"/>
<path d="M428.636 297.167L409.992 280.886" stroke="#714C11" stroke-miterlimit="10"/>
<path d="M411.771 279.052C410.711 278.129 409.095 278.238 408.172 279.297C407.249 280.356 407.357 281.972 408.416 282.895C409.476 283.819 411.092 283.71 412.015 282.651C412.938 281.592 412.83 279.976 411.771 279.052Z" fill="#714C11"/>
<path d="M378.203 272.562L393.67 278.659" stroke="#714C11" stroke-miterlimit="10"/>
<path d="M392.61 280.994C393.927 281.51 395.408 280.872 395.924 279.555C396.44 278.238 395.801 276.758 394.484 276.242C393.167 275.726 391.687 276.364 391.171 277.681C390.655 278.998 391.293 280.478 392.61 280.994Z" fill="#714C11"/>
<path d="M378.203 274.653L391.008 285.448" stroke="#714C11" stroke-miterlimit="10"/>
<path d="M389.27 287.322C390.343 288.232 391.959 288.096 392.869 287.01C393.778 285.937 393.643 284.321 392.556 283.411C391.484 282.502 389.868 282.637 388.958 283.724C388.048 284.796 388.184 286.412 389.27 287.322Z" fill="#714C11"/>
<path d="M415.899 385.446L402.971 366.408" stroke="#714C11" stroke-miterlimit="10"/>
<path d="M405.144 365.077C404.356 363.909 402.767 363.61 401.6 364.398C400.432 365.185 400.133 366.774 400.921 367.942C401.708 369.11 403.297 369.408 404.465 368.621C405.633 367.833 405.931 366.244 405.144 365.077Z" fill="#714C11"/>
<path d="M428.826 366.367L411.906 351.593" stroke="#714C11" stroke-miterlimit="10"/>
<path d="M413.672 349.759C412.613 348.836 410.997 348.945 410.073 350.004C409.15 351.063 409.259 352.679 410.318 353.602C411.377 354.526 412.993 354.417 413.916 353.358C414.84 352.299 414.731 350.683 413.672 349.759Z" fill="#714C11"/>
<path d="M461.158 448.345L450.539 439.083" stroke="#714C11" stroke-miterlimit="10"/>
<path d="M452.318 437.236C451.259 436.313 449.643 436.422 448.72 437.481C447.797 438.54 447.905 440.156 448.964 441.079C450.024 442.003 451.639 441.894 452.563 440.835C453.486 439.776 453.378 438.16 452.318 437.236Z" fill="#714C11"/>
<path d="M398.952 438.852L422.607 436.761" stroke="#714C11" stroke-miterlimit="10"/>
<path d="M422.702 439.328C424.1 439.206 425.146 437.97 425.024 436.558C424.902 435.146 423.666 434.114 422.254 434.236C420.855 434.358 419.809 435.594 419.932 437.006C420.054 438.405 421.29 439.45 422.702 439.328Z" fill="#714C11"/>
<path d="M379.765 342.97L395.218 349.067" stroke="#714C11" stroke-miterlimit="10"/>
<path d="M394.172 351.389C395.489 351.905 396.969 351.267 397.485 349.95C398.001 348.632 397.363 347.152 396.046 346.636C394.729 346.12 393.248 346.758 392.732 348.076C392.216 349.393 392.855 350.873 394.172 351.389Z" fill="#714C11"/>
<path d="M379.765 345.061L392.57 355.856" stroke="#714C11" stroke-miterlimit="10"/>
<path d="M390.832 357.73C391.904 358.64 393.52 358.504 394.43 357.418C395.34 356.345 395.204 354.729 394.118 353.82C393.045 352.91 391.429 353.046 390.519 354.132C389.609 355.205 389.745 356.821 390.832 357.73Z" fill="#714C11"/>
<path d="M294.297 385.446L281.356 366.408" stroke="#714C11" stroke-miterlimit="10"/>
<path d="M283.542 365.077C282.755 363.909 281.166 363.61 279.998 364.398C278.83 365.185 278.531 366.774 279.319 367.942C280.107 369.11 281.695 369.408 282.863 368.621C284.031 367.833 284.33 366.244 283.542 365.077Z" fill="#714C11"/>
<path d="M306.504 365.796L287.48 351.701" stroke="#714C11" stroke-miterlimit="10"/>
<path d="M289.096 349.732C287.969 348.89 286.367 349.135 285.525 350.262C284.683 351.389 284.927 352.991 286.054 353.833C287.182 354.675 288.784 354.431 289.626 353.304C290.468 352.177 290.223 350.574 289.096 349.732Z" fill="#714C11"/>
<path d="M258.149 342.236L273.616 348.333" stroke="#714C11" stroke-miterlimit="10"/>
<path d="M272.557 350.656C273.874 351.172 275.354 350.533 275.87 349.216C276.386 347.899 275.748 346.419 274.431 345.903C273.113 345.387 271.633 346.025 271.117 347.342C270.601 348.659 271.239 350.14 272.557 350.656Z" fill="#714C11"/>
<path d="M257.769 344.382L270.574 355.191" stroke="#714C11" stroke-miterlimit="10"/>
<path d="M268.836 357.052C269.909 357.961 271.525 357.826 272.435 356.739C273.344 355.667 273.209 354.051 272.122 353.141C271.049 352.231 269.433 352.367 268.524 353.453C267.614 354.526 267.75 356.142 268.836 357.052Z" fill="#714C11"/>
<path d="M19.3452 403.805L89.1559 360.256" stroke="#714C11" stroke-miterlimit="10"/>
<path d="M90.3915 362.497C91.5865 361.75 91.9531 360.175 91.2063 358.98C90.4594 357.785 88.8842 357.418 87.6893 358.165C86.4943 358.912 86.1277 360.487 86.8745 361.682C87.6214 362.877 89.1966 363.244 90.3915 362.497Z" fill="#714C11"/>
<path d="M96.7061 208.074L77.8174 280.519" stroke="#714C11" stroke-miterlimit="10"/>
<path d="M75.3866 279.745C75.0335 281.103 75.8482 282.502 77.2062 282.855C78.5641 283.208 79.9627 282.393 80.3158 281.035C80.6689 279.677 79.8541 278.279 78.4962 277.926C77.1383 277.573 75.7396 278.387 75.3866 279.745Z" fill="#714C11"/>
<path d="M97.48 208.074L105.492 306.768" stroke="#714C11" stroke-miterlimit="10"/>
<path d="M102.939 306.849C103.047 308.248 104.283 309.307 105.695 309.185C107.108 309.063 108.153 307.84 108.031 306.428C107.922 305.03 106.687 303.97 105.274 304.093C103.876 304.201 102.817 305.437 102.939 306.849Z" fill="#714C11"/>
<path d="M44.29 442.696L100.983 391.706" stroke="#714C11" stroke-miterlimit="10"/>
<path d="M102.586 393.688C103.631 392.751 103.713 391.135 102.776 390.09C101.839 389.044 100.223 388.962 99.1775 389.899C98.1319 390.836 98.0504 392.452 98.9873 393.498C99.9243 394.544 101.54 394.625 102.586 393.688Z" fill="#714C11"/>
<path d="M93.3521 440.292L144.885 394.136" stroke="#714C11" stroke-miterlimit="10"/>
<path d="M146.487 396.119C147.533 395.182 147.628 393.566 146.691 392.52C145.754 391.475 144.138 391.38 143.093 392.317C142.047 393.254 141.952 394.87 142.889 395.915C143.826 396.961 145.442 397.056 146.487 396.119Z" fill="#714C11"/>
<path d="M93.3521 440.292L132.963 365.335" stroke="#714C11" stroke-miterlimit="10"/>
<path d="M135.162 366.638C135.828 365.389 135.339 363.841 134.103 363.189C132.867 362.537 131.306 363.013 130.654 364.248C130.002 365.484 130.478 367.046 131.713 367.698C132.949 368.349 134.511 367.874 135.162 366.638Z" fill="#714C11"/>
<path d="M186.913 213.125V322.058" stroke="#714C11" stroke-miterlimit="10"/>
<path d="M186.913 324.475C188.323 324.475 189.466 323.332 189.466 321.922C189.466 320.512 188.323 319.369 186.913 319.369C185.503 319.369 184.36 320.512 184.36 321.922C184.36 323.332 185.503 324.475 186.913 324.475Z" fill="#714C11"/>
<path d="M158.098 200.442V309.375" stroke="#714C11" stroke-miterlimit="10"/>
<path d="M158.097 311.792C159.507 311.792 160.65 310.649 160.65 309.239C160.65 307.829 159.507 306.686 158.097 306.686C156.687 306.686 155.544 307.829 155.544 309.239C155.544 310.649 156.687 311.792 158.097 311.792Z" fill="#714C11"/>
<path d="M11.4966 110.182L41.9276 121.072" stroke="#714C11" stroke-miterlimit="10"/>
<path d="M40.9499 123.435C42.2806 123.91 43.7336 123.218 44.2089 121.887C44.6841 120.556 43.9916 119.103 42.6608 118.628C41.3301 118.153 39.8771 118.845 39.4018 120.176C38.9266 121.507 39.6191 122.96 40.9499 123.435Z" fill="#714C11"/>
<path d="M11.4287 111.485L55.7105 134.706" stroke="#714C11" stroke-miterlimit="10"/>
<path d="M54.4066 136.906C55.6559 137.557 57.2039 137.082 57.8557 135.833C58.5076 134.584 58.0323 133.035 56.783 132.384C55.5337 131.732 53.9857 132.207 53.3339 133.456C52.6821 134.706 53.1573 136.254 54.4066 136.906Z" fill="#714C11"/>
<path d="M117.822 100.717L91.9668 57.3447" stroke="#714C11" stroke-miterlimit="10"/>
<path d="M94.2209 56.15C93.5012 54.9415 91.926 54.5477 90.7174 55.2674C89.5089 55.9871 89.1151 57.5623 89.8348 58.7708C90.5545 59.9794 92.1297 60.3732 93.3382 59.6535C94.5468 58.9338 94.9406 57.3586 94.2209 56.15Z" fill="#714C11"/>
<path d="M10.2334 11.2163L40.6644 22.1068" stroke="#714C11" stroke-miterlimit="10"/>
<path d="M39.6867 24.4696C41.0174 24.9449 42.4704 24.2523 42.9457 22.9216C43.421 21.5908 42.7284 20.1378 41.3976 19.6626C40.0669 19.1873 38.6139 19.8798 38.1386 21.2106C37.6634 22.5414 38.3559 23.9943 39.6867 24.4696Z" fill="#714C11"/>
<path d="M10.1519 12.52L54.4336 35.7405" stroke="#714C11" stroke-miterlimit="10"/>
<path d="M53.1439 37.9402C54.3932 38.592 55.9413 38.1168 56.5931 36.8675C57.2449 35.6182 56.7696 34.0702 55.5203 33.4183C54.271 32.7665 52.723 33.2418 52.0712 34.4911C51.4194 35.7404 51.8947 37.2884 53.1439 37.9402Z" fill="#714C11"/>
<path d="M108.113 48.3827L78.1841 36.2021" stroke="#714C11" stroke-miterlimit="10"/>
<path d="M79.2565 33.8798C77.9529 33.3502 76.4592 33.9749 75.9296 35.2785C75.4001 36.5821 76.0247 38.0758 77.3283 38.6054C78.6319 39.135 80.1256 38.5103 80.6552 37.2067C81.1848 35.9031 80.5601 34.4094 79.2565 33.8798Z" fill="#714C11"/>
<path d="M107.624 48.2196L117.333 59.4089L122.167 45.4087L107.624 48.2196Z" stroke="#714C11" stroke-miterlimit="10"/>
<path d="M109.212 147.171L79.2837 134.991" stroke="#714C11" stroke-miterlimit="10"/>
<path d="M80.3566 132.669C79.053 132.139 77.5593 132.764 77.0297 134.068C76.5001 135.371 77.1248 136.865 78.4284 137.394C79.732 137.924 81.2257 137.299 81.7553 135.996C82.2849 134.692 81.6602 133.198 80.3566 132.669Z" fill="#714C11"/>
<path d="M108.724 147.008L118.433 158.197L123.267 144.197L108.724 147.008Z" stroke="#714C11" stroke-miterlimit="10"/>
<path d="M228.763 442.913L215.931 435.512V450.327L228.763 442.913Z" stroke="#714C11" stroke-miterlimit="10"/>
<path d="M336.121 444.434L323.302 437.033V451.835L336.121 444.434Z" stroke="#714C11" stroke-miterlimit="10"/>
<path d="M305.608 295.565L310.565 307.501L318.427 297.249L305.608 295.565Z" stroke="#714C11" stroke-miterlimit="10"/>
<path d="M306.328 365.946L311.285 377.882L319.147 367.616L306.328 365.946Z" stroke="#714C11" stroke-miterlimit="10"/>
</g>
<defs>
<clipPath id="clip0_942_2434">
<rect width="501.521" height="455.27" fill="white" transform="translate(0.904785)"/>
</clipPath>
</defs>
</svg>
