<svg viewBox="0 0 719 94" fill="none" xmlns="http://www.w3.org/2000/svg" class="h-43 s:h-[9.4rem] w-auto mt-20 s:mt-40" xmlns:xlink="http://www.w3.org/1999/xlink" width="719" height="94"><path d="M66.7655 55.719C53.9962 93.7367 0.790833 87.352 0.790833 46.8192C0.790833 17.3144 35.8096 1.83646 59.3167 17.2177L62.896 39.177H62.6058C46.6442 0.482146 9.20696 10.3493 9.20696 41.3052C9.20696 76.6142 52.9321 85.8042 66.4753 55.6223L66.7655 55.719ZM63.4009 80C66.8834 73.4219 70.5594 65.8764 73.8485 58.6211L90.1003 21.7643L87.8753 17.4111L94.26 8.41459L121.056 65.296C123.571 70.423 126.183 75.5501 129.666 80H111.673C113.317 76.9044 112.64 71.4871 109.448 64.4253L105.191 54.9451H77.5245L76.0734 58.3309C72.2039 67.3274 74.5256 74.3893 85.8439 80H63.4009ZM78.2016 53.3973H104.417L90.9709 23.6023L78.2016 53.3973ZM161.21 81.1608C154.922 81.1608 141.572 79.8065 133.64 77.9685L129.286 40.0476H129.867C132.962 66.5535 143.797 79.5163 163.435 79.5163C172.818 79.5163 180.073 74.2925 180.17 68.3916C180.17 64.909 177.365 61.8134 173.108 59.395C165.95 55.1386 152.31 49.5278 142.152 44.4975C133.833 40.2411 129.48 34.3401 129.48 29.213C129.48 16.734 141.282 11.1232 158.404 11.22C165.563 11.22 174.463 12.1873 180.654 13.5416L184.136 45.2714L183.846 45.3681C179.493 21.6676 170.787 13.1547 154.051 13.1547C141.572 13.1547 135.187 17.7013 135.187 22.9251C135.187 27.0848 139.831 31.3413 146.119 34.7271C158.211 41.1117 171.27 45.4649 177.655 49.9148C182.782 53.494 184.91 58.1374 184.813 62.5873C184.813 71.8741 175.817 81.1608 161.21 81.1608ZM185.203 80C188.685 73.4219 192.361 65.8764 195.65 58.6211L211.902 21.7643L209.677 17.4111L216.062 8.41459L242.858 65.296C245.373 70.423 247.985 75.5501 251.468 80H233.474C235.119 76.9044 234.442 71.4871 231.249 64.4253L226.993 54.9451H199.326L197.875 58.3309C194.006 67.3274 196.327 74.3893 207.646 80H185.203ZM200.003 53.3973H226.219L212.773 23.6023L200.003 53.3973ZM367.543 81.1608C361.255 81.1608 347.905 79.8065 339.973 77.9685L335.62 40.0476H336.2C339.296 66.5535 350.13 79.5163 369.768 79.5163C379.151 79.5163 386.407 74.2925 386.503 68.3916C386.503 64.909 383.698 61.8134 379.442 59.395C372.283 55.1386 358.643 49.5278 348.486 44.4975C340.166 40.2411 335.813 34.3401 335.813 29.213C335.813 16.734 347.615 11.1232 364.738 11.22C371.896 11.22 380.796 12.1873 386.987 13.5416L390.47 45.2714L390.179 45.3681C385.826 21.6676 377.12 13.1547 360.384 13.1547C347.905 13.1547 341.521 17.7013 341.521 22.9251C341.521 27.0848 346.164 31.3413 352.452 34.7271C364.544 41.1117 377.604 45.4649 383.988 49.9148C389.115 53.494 391.243 58.1374 391.147 62.5873C391.147 71.8741 382.15 81.1608 367.543 81.1608ZM455.688 69.7459C442.822 83.8695 421.346 84.5466 407.609 71.7774C393.969 58.4276 393.389 36.5651 405.965 22.3447C418.734 8.41459 439.92 7.44721 453.656 20.8937C467.103 33.663 468.07 55.719 455.688 69.7459ZM447.368 63.8449C459.17 50.3985 463.33 31.8249 452.302 21.4741C442.241 11.9939 424.829 15.5731 412.833 29.0196C400.644 42.2726 399.193 61.4265 408.383 70.7132C419.798 81.7413 434.986 77.2914 447.368 63.8449ZM464.394 79.8065C471.843 78.0653 473.584 73.9056 473.584 69.1655V22.3447C473.584 17.7013 471.843 14.1221 464.297 12.5743V12.2841H493.609V12.5743C487.804 13.7351 483.548 16.5405 483.548 22.3447V78.4522H492.641C504.83 78.4522 516.245 67.9079 525.919 55.0418H526.112L514.504 80.8706C509.28 79.9033 505.217 80 500.574 80H464.394V79.8065ZM523.257 80C526.74 73.4219 530.416 65.8764 533.705 58.6211L549.956 21.7643L547.731 17.4111L554.116 8.41459L580.912 65.296C583.427 70.423 586.039 75.5501 589.522 80H571.529C573.173 76.9044 572.496 71.4871 569.304 64.4253L565.047 54.9451H537.381L535.93 58.3309C532.06 67.3274 534.382 74.3893 545.7 80H523.257ZM538.058 53.3973H564.274L550.827 23.6023L538.058 53.3973ZM592.162 79.8065C595.548 77.0012 595.548 74.1958 595.548 71.1002V21.4741C595.548 16.5405 594.387 14.4123 586.745 12.4775V12.2841H620.506C636.371 12.2841 646.721 19.1524 646.721 28.9228C646.721 38.9835 637.628 45.4649 620.796 45.4649H613.057C613.154 50.4952 620.699 56.5896 634.146 63.1678C643.239 67.6177 649.914 73.8088 653.203 80H641.207C633.759 72.7447 625.73 68.1013 620.119 61.8134C615.475 57.1701 611.896 51.8495 611.896 45.3681V44.0138H616.926C630.083 44.0138 636.467 38.8868 636.467 28.9228C636.467 19.2491 628.148 13.7351 615.959 13.7351H605.512V66.747C605.512 73.6154 606.092 75.6468 615.475 79.8065V80H592.162V79.8065ZM655.03 79.8065C662.576 77.4848 663.833 74.0023 663.833 69.8426V21.861C663.833 17.7981 662.576 14.7992 655.03 12.4775V12.2841H691.5C697.111 12.2841 702.625 12.2841 708.139 10.5428L715.588 31.8249L715.491 31.9217C705.721 21.3773 701.174 13.9286 686.663 13.9286H673.797V44.9812H684.535C691.597 44.9812 696.627 41.1117 699.433 30.2772H699.626V61.233H699.433C696.627 50.5919 691.597 46.529 684.535 46.529H673.797V78.3555H687.147C699.336 78.3555 708.236 69.4557 718.78 56.9766H718.877L708.913 81.4511C703.109 79.9033 697.304 80 691.597 80H655.03V79.8065Z" class="fill-current" fill="#FFFFFF"></path> <path d="M270.501 66.7463C266.956 66.7463 265.028 62.3931 265.028 57.729C265.028 46.9704 276.16 33.8488 285.737 33.8488C289.095 33.8488 292.204 34.8438 293.573 38.7616L298.423 27.9409C299.854 24.7693 300.413 22.4061 300.413 20.6649L308.373 15.3167L290.214 54.4952C288.287 58.6618 288.224 60.0921 288.224 61.2737C288.224 64.3209 290.277 66.5597 294.754 66.5597V66.7463C288.1 66.7463 284.866 63.8856 284.866 59.719C284.866 58.0399 285.364 56.0499 286.359 53.9977L290.898 44.5451C282.503 57.9777 276.72 66.7463 270.501 66.7463ZM269.63 59.2837C269.63 62.704 270.75 65.4403 272.366 65.4403C276.906 65.4403 283.001 56.0499 292.453 41.2491C292.329 36.2119 289.717 34.2841 286.608 34.2841C277.59 34.2841 269.63 48.9605 269.63 59.2837ZM305.59 46.5973C307.02 43.5501 307.58 41.0626 307.58 39.3213L315.478 33.9731L300.615 66H296.448L305.59 46.5973ZM313.55 25.5777C313.55 23.9608 314.98 22.7793 316.908 22.7793C318.836 22.7793 320.266 23.9608 320.266 25.5777C320.266 27.0702 318.836 28.314 316.908 28.314C314.98 28.314 313.55 27.0702 313.55 25.5777Z" class="fill-current" fill="#FFFFFF"></path></svg>