<svg xmlns="http://www.w3.org/2000/svg" viewBox="0 0 14 14" fill="none" class="h-14 w-14" data-v-8a02dd02="" xmlns:xlink="http://www.w3.org/1999/xlink" width="14" height="14"><g clip-path="url(#a)" data-v-8a02dd02="" fill="none"><path d="M4.784 8.84 3.36 10.25c-.377.377-1.034.65-1.56.65H.5V9.6h1.3c.188 0 .52-.13.65-.267l1.41-1.417.924.923ZM10.9 3.1V1.15l2.6 2.6-2.6 2.6V4.4H9.6c-.188 0-.52.13-.65.266L7.54 6.083l-.93-.923 1.43-1.41c.377-.377 1.034-.65 1.567-.65h1.3-.007Zm0 6.5V7.65l2.6 2.6-2.6 2.6V10.9H9.6c-.533 0-1.19-.273-1.566-.65l-5.59-5.584C2.32 4.536 1.995 4.4 1.8 4.4H.5V3.1h1.3c.533 0 1.19.273 1.566.65l5.59 5.583c.13.13.456.267.644.267h1.3Z" class="fill-current" data-v-8a02dd02="" fill="#FFFFFF"></path></g> <defs data-v-8a02dd02=""><clipPath id="a" data-v-8a02dd02=""><path d="M.5.5h13v13H.5z" class="fill-current" data-v-8a02dd02=""></path></clipPath></defs></svg>