<svg viewBox="0 0 227 30" fill="none" xmlns="http://www.w3.org/2000/svg" class="absolute top-1/2 left-1/2 -translate-y-1/2 -translate-x-1/2 h-22 s:h-30 w-auto" data-v-7f3ff62e="" xmlns:xlink="http://www.w3.org/1999/xlink" width="227" height="30"><path d="M19.8607 17.5C16.0207 29.35 0.390664 27.22 0.390664 14.68C0.390664 4.39 12.2107 0.879999 18.1507 6.1L18.4507 11.65H18.3907C13.6207 0.73 3.30066 2.92 3.30066 13.27C3.30066 24.04 15.6907 26.86 19.7707 17.47L19.8607 17.5ZM18.5064 25C19.7664 22.93 20.7864 20.65 21.8064 18.37L26.4264 7L26.1564 5.47L28.0164 3.07L35.7264 20.44C36.4764 22.18 37.3764 23.8 38.2464 25H32.5164C33.0264 23.95 32.8764 22.45 31.9464 20.23L30.6864 17.23H22.8864L22.3764 18.49C21.2964 21.1 21.9564 23.41 25.3164 25H18.5064ZM23.0664 16.75H30.5064L26.6964 7.63L23.0664 16.75ZM47.0843 25.36C45.1343 25.36 41.7443 24.85 39.6743 24.31L38.5043 13.96H38.6543C39.4943 21.64 43.4543 24.85 47.8043 24.82C50.6843 24.82 52.6043 23.32 52.6343 21.49C52.6343 20.41 52.0043 19.3 50.7143 18.52C48.7343 17.29 44.5643 15.43 41.8643 13.96C39.6743 12.73 38.5043 10.99 38.5043 9.28C38.5043 5.41 42.0743 3.67 46.6943 3.67C48.5843 3.67 51.2843 4 52.9943 4.45L53.8043 13.09H53.7443C52.4243 6.19 49.2743 4.33 45.3743 4.33C42.1643 4.33 40.3643 5.59 40.3043 7.24C40.2443 8.68 41.8643 10.12 43.4243 10.99C46.3643 12.64 50.0543 14.02 51.7043 15.16C53.4443 16.33 54.2843 17.86 54.2543 19.45C54.2543 22.45 51.5243 25.36 47.0843 25.36ZM54.1033 25C55.3633 22.93 56.3833 20.65 57.4033 18.37L62.0233 7L61.7533 5.47L63.6133 3.07L71.3233 20.44C72.0733 22.18 72.9733 23.8 73.8433 25H68.1133C68.6233 23.95 68.4733 22.45 67.5433 20.23L66.2833 17.23H58.4833L57.9733 18.49C56.8933 21.1 57.5533 23.41 60.9133 25H54.1033ZM58.6633 16.75H66.1033L62.2933 7.63L58.6633 16.75ZM83.3964 25.36C81.3564 25.36 80.3064 23.44 80.3064 21.01C80.3064 19.33 80.8464 17.56 81.8664 15.76C83.9364 12.16 87.4764 9.49 90.7464 9.49C92.5164 9.49 93.6864 10 94.4064 11.62L96.3864 7.18C97.0464 5.77 97.3464 4.6 97.3464 3.67L101.756 0.549998L92.9964 19.45C91.3764 22.96 91.6164 25.27 94.8564 25.27V25.36C90.2064 25.36 89.1864 22.51 90.8064 19.21L92.9964 14.65C92.2764 15.85 89.6664 19.93 88.4064 21.67C86.7264 23.98 85.0764 25.36 83.3964 25.36ZM84.4764 24.58C86.3964 24.58 89.1864 20.05 90.3264 18.34C90.9264 17.47 93.2664 13.81 93.7464 13.06C93.7164 10.81 92.6064 9.7 91.1664 9.7C89.6964 9.7 88.4964 10.33 87.1764 11.62C84.5664 14.17 82.8564 18.4 82.8564 21.76C82.8564 23.56 83.3964 24.58 84.4764 24.58ZM100.32 15.64C100.95 14.29 101.28 13.12 101.28 12.13L105.42 9.55L98.2502 25H95.9102L100.32 15.64ZM105.84 6.91C104.79 6.91 103.98 6.25 103.98 5.47C103.98 4.57 104.88 4 105.84 4C106.92 4 107.7 4.63 107.7 5.47C107.7 6.25 106.89 6.91 105.84 6.91ZM121.845 25.36C119.895 25.36 116.505 24.85 114.435 24.31L113.265 13.96H113.415C114.255 21.64 118.215 24.85 122.565 24.82C125.445 24.82 127.365 23.32 127.395 21.49C127.395 20.41 126.765 19.3 125.475 18.52C123.495 17.29 119.325 15.43 116.625 13.96C114.435 12.73 113.265 10.99 113.265 9.28C113.265 5.41 116.835 3.67 121.455 3.67C123.345 3.67 126.045 4 127.755 4.45L128.565 13.09H128.505C127.185 6.19 124.035 4.33 120.135 4.33C116.925 4.33 115.125 5.59 115.065 7.24C115.005 8.68 116.625 10.12 118.185 10.99C121.125 12.64 124.815 14.02 126.465 15.16C128.205 16.33 129.045 17.86 129.015 19.45C129.015 22.45 126.285 25.36 121.845 25.36ZM149.015 21.46C145.325 25.99 138.815 26.5 134.465 22.75C130.175 18.82 129.665 12.07 133.265 7.51C136.955 3.01 143.345 2.44 147.695 6.37C151.925 10.18 152.585 16.93 149.015 21.46ZM146.195 19.63C149.585 15.34 150.785 9.64 147.275 6.58C144.095 3.79 139.355 5.2 135.935 9.52C132.395 13.81 131.795 19.66 134.705 22.42C138.335 25.66 142.655 23.98 146.195 19.63ZM151.375 24.94C153.235 24.52 154.135 23.38 154.135 21.4V7.45C154.135 5.32 153.235 4.48 151.345 4.09V4H160.345V4.09C158.485 4.51 157.405 5.35 157.405 7.48V24.52H159.295C162.625 24.52 166.705 21.13 169.555 17.26H169.675L166.075 25.18C164.485 24.97 163.225 25 161.755 25H151.375V24.94ZM168.358 25C169.618 22.93 170.638 20.65 171.658 18.37L176.278 7L176.008 5.47L177.868 3.07L185.578 20.44C186.328 22.18 187.228 23.8 188.098 25H182.368C182.878 23.95 182.728 22.45 181.798 20.23L180.538 17.23H172.738L172.228 18.49C171.148 21.1 171.808 23.41 175.168 25H168.358ZM172.918 16.75H180.358L176.548 7.63L172.918 16.75ZM187.838 24.91C190.208 24.34 190.358 22.9 190.358 21.64V8.08C190.358 6.34 190.568 4.84 188.078 4.09V4H198.518C203.228 4 206.048 6.13 206.048 9.16C206.048 12.28 203.228 14.29 198.248 14.29H195.578C195.728 15.25 197.558 16.24 200.708 17.08C202.508 19.3 205.118 22.21 207.668 25H203.108C201.008 22.57 198.878 20.26 197.498 18.7C195.848 16.69 195.098 15.46 195.098 14.26V13.78H196.748C200.588 13.78 202.658 12.22 202.658 9.16C202.658 6.19 200.018 4.51 196.448 4.51H193.598V21.55C193.598 23.95 194.588 24.7 196.148 24.94V25H187.838V24.91ZM207.922 24.94C209.842 24.34 210.562 23.44 210.562 21.61V7.3C210.562 5.32 209.812 4.66 207.922 4.06V4H218.332C220.072 4 221.992 4 223.732 3.76L225.802 10.06L225.772 10.09C222.682 6.73 220.822 4.54 216.802 4.54H213.802V14.14H216.082C218.032 14.14 219.802 12.85 220.792 10H220.852V18.64H220.792C219.802 15.85 218.032 14.59 216.082 14.59H213.802V24.46H216.982C220.252 24.43 223.282 21.79 226.462 18.07H226.522L223.822 25.27C222.052 24.97 220.132 25 218.362 25H207.922V24.94Z" class="sh__logo" data-v-7f3ff62e="" fill="#563E3B"></path></svg>