<svg xmlns="http://www.w3.org/2000/svg" width="503" height="456" viewBox="0 0 503 456" fill="none" xmlns:xlink="http://www.w3.org/1999/xlink">
<path d="M187.66 90.7769V35.4145H438.509V90.7769H187.66ZM44.0733 446.566C91.3561 376.796 109.24 296.054 97.6976 203.213C97.6976 292.021 80.3977 364.099 15.815 406.779L44.0733 446.566ZM116.152 149.588C93.0807 140.368 40.0267 119.022 7.16504 108.647C33.1149 122.484 91.3561 146.126 123.077 204.951L116.152 149.588ZM116.152 51.5602C93.0807 42.3399 40.0267 20.9934 7.16504 10.6189C33.1149 24.4561 91.3561 48.0975 123.077 106.923L116.152 51.5602ZM433.308 368.716C417.162 357.187 396.399 347.383 373.912 339.304C391.782 353.141 407.928 371.025 418.316 389.479L433.308 368.716ZM433.308 299.516C417.162 287.988 396.399 278.184 373.912 270.104C391.782 283.941 407.928 301.825 418.316 320.279L433.308 299.516ZM312.208 368.716C296.063 357.187 275.3 347.383 252.813 339.304C270.683 353.141 286.829 371.025 297.217 389.479L312.208 368.716ZM312.208 299.516C296.063 287.988 275.3 278.184 252.813 270.104C270.683 283.941 286.829 301.825 297.217 320.279L312.208 299.516ZM89.618 444.257H90.1883C149.013 381.399 187.646 341.042 187.646 196.301V169.197H330.079V227.438H221.092V443.687H245.887V235.518H330.079V444.271H354.874V235.518H440.219V426.971L392.937 438.5C427.537 433.312 448.869 439.07 465.015 449.458V235.518L455.211 215.909C448.286 221.68 441.374 227.438 434.448 227.438H354.874V169.197H497.306L462.707 142.093C460.982 162.855 447.131 161.117 439.636 161.117H187.633V98.843H441.36L470.189 98.2727V56.1771L438.468 5.43164V27.3485H181.278L157.093 5.43164L158.247 190.543C161.71 331.251 143.826 380.258 89.6315 444.271L89.618 444.257Z" fill="#563E3B"/>
</svg>